<!-- Generated by IcoMoon.io -->
<svg version="1.1" xmlns="http://www.w3.org/2000/svg" width="1000" height="1000" viewBox="0 0 1000 1000">
<title>twitter</title>
<path fill="#ee3040" d="M1000 221.094c-36.719 16.406-76.367 27.344-117.773 32.227 42.383-25.391 74.805-65.625 90.234-113.477-39.648 23.438-83.594 40.625-130.273 49.805-37.5-39.844-90.82-64.648-149.805-64.648-113.281 0-205.078 91.797-205.078 205.078 0 16.016 1.758 31.641 5.273 46.68-170.508-8.594-321.68-90.234-422.852-214.453-17.578 30.273-27.734 65.625-27.734 103.125 0 71.094 36.133 133.984 91.211 170.703-33.594-0.977-65.234-10.352-92.969-25.586 0 0.781 0 1.758 0 2.539 0 99.414 70.703 182.422 164.648 201.172-17.187 4.688-35.352 7.227-54.102 7.227-13.281 0-25.977-1.367-38.672-3.711 26.172 81.445 101.953 140.82 191.602 142.578-70.313 55.078-158.594 87.891-254.883 87.891-16.602 0-32.813-0.977-49.023-2.93 91.016 58.398 198.828 92.188 314.648 92.188 377.344 0 583.789-312.695 583.789-583.789 0-8.984-0.195-17.773-0.586-26.563 40.039-28.711 74.805-64.844 102.344-106.055z"></path>
</svg>
