<!-- Generated by IcoMoon.io -->
<svg version="1.1" xmlns="http://www.w3.org/2000/svg" width="1000" height="1000" viewBox="0 0 1000 1000">
<title>instagram</title>
<path fill="#ee3040" d="M906.25 0h-812.5c-51.563 0-93.75 42.188-93.75 93.75v812.5c0 51.563 42.188 93.75 93.75 93.75h812.5c51.563 0 93.75-42.188 93.75-93.75v-812.5c0-51.563-42.188-93.75-93.75-93.75zM687.5 156.25c0-17.188 14.063-31.25 31.25-31.25h125c17.188 0 31.25 14.063 31.25 31.25v125c0 17.188-14.063 31.25-31.25 31.25h-125c-17.188 0-31.25-14.063-31.25-31.25v-125zM500 312.5c103.516 0 187.5 83.984 187.5 187.5s-83.984 187.5-187.5 187.5c-103.516 0-187.5-83.984-187.5-187.5s83.984-187.5 187.5-187.5zM875 843.75v0c0 17.188-14.063 31.25-31.25 31.25h-687.5c-17.188 0-31.25-14.063-31.25-31.25v0-406.25h68.75c-4.102 20.117-6.25 41.016-6.25 62.5 0 172.656 139.844 312.5 312.5 312.5s312.5-139.844 312.5-312.5c0-21.484-2.148-42.383-6.25-62.5h68.75v406.25z"></path>
</svg>
